<svg width="69" height="69" viewBox="0 0 69 69" fill="none" xmlns="http://www.w3.org/2000/svg">
<path fill-rule="evenodd" clip-rule="evenodd" d="M19.5443 0C7.8522 0 0 8.2041 0 20.4102V48.5898C0 60.7959 7.8522 69 19.5443 69H49.4523C61.1444 69 69 60.7959 69 48.5898V20.4102C69 8.2041 61.1444 0 49.4523 0L19.5443 0ZM19.5443 5.175L49.4523 5.175C58.1808 5.175 63.825 11.1538 63.825 20.4102L63.825 48.5898C63.825 57.8461 58.1808 63.825 49.4523 63.825L19.5443 63.825C10.8158 63.825 5.175 57.8461 5.175 48.5898L5.175 20.4102C5.175 11.1538 10.8158 5.175 19.5443 5.175ZM34.5 17.8155C33.0717 17.8155 31.9125 18.9747 31.9125 20.403L31.9125 42.3315L23.4013 33.7855C22.3905 32.7678 20.7552 32.7747 19.7443 33.7786C18.7335 34.786 18.7266 36.4248 19.7374 37.4391L32.668 50.4249C32.7526 50.5077 32.84 50.5842 32.9323 50.6546L32.668 50.4249C32.8039 50.5626 32.9539 50.6832 33.1146 50.7853C33.1538 50.8066 33.192 50.8295 33.2309 50.8514C33.3045 50.8966 33.3828 50.9357 33.4628 50.9707C33.4853 50.9772 33.5061 50.9859 33.5269 50.9944C33.607 51.0302 33.6908 51.0593 33.7758 51.0841C33.8286 51.0964 33.8811 51.1099 33.9342 51.1217C33.999 51.1393 34.0641 51.1513 34.1298 51.1607C34.1826 51.1651 34.2378 51.1713 34.2934 51.1757C34.3629 51.1846 34.4313 51.1873 34.5 51.1873L34.7035 51.1704L34.851 51.1602C34.858 51.1593 34.865 51.1583 34.872 51.1573L34.5 51.1873C34.6915 51.1873 34.8811 51.1661 35.0655 51.1249C35.1189 51.1099 35.1714 51.0964 35.2232 51.0813C35.3092 51.0593 35.393 51.0302 35.475 50.9969C35.4939 50.9859 35.5147 50.9772 35.5352 50.9682C35.6172 50.9357 35.6955 50.8966 35.7716 50.8536C35.808 50.8295 35.8462 50.8066 35.8838 50.7827C35.9485 50.7452 36.01 50.7023 36.0696 50.6566C36.1697 50.5767 36.2659 50.4914 36.3552 50.3995L49.2625 37.4391C50.2734 36.4248 50.2665 34.786 49.2556 33.7786C48.2414 32.7747 46.6061 32.7678 45.5986 33.7855L37.0875 42.3315V20.403C37.0875 18.9747 35.9283 17.8155 34.5 17.8155Z" fill="white"/>
</svg>
